<svg width="240" height="240" viewBox="0 0 240 240" xmlns="http://www.w3.org/2000/svg" xmlns:xlink="http://www.w3.org/1999/xlink"><defs><path id="a" d="M0 0h240v240H0z"/><mask id="b" x="0" y="0" width="240" height="240" fill="#fff"><use xlink:href="#a"/></mask></defs><g fill="none" fill-rule="evenodd"><use stroke="gray" mask="url(#b)" stroke-width="30" xlink:href="#a"/><path d="M63.855 173H44.52V67.742h19.335v66.375l28.618-36.28h22.078l-24.96 31.358L114.55 173H92.474l-15.258-27.352-13.36 17.72V173zm54.422-70.594c0-4.172.797-8.086 2.39-11.742 1.595-3.656 3.763-6.855 6.505-9.598 2.742-2.742 5.94-4.91 9.598-6.504 3.656-1.593 7.57-2.39 11.742-2.39h46.265v20.18h-46.265c-1.407 0-2.72.257-3.938.773-1.22.516-2.285 1.23-3.2 2.145-.913.914-1.628 1.98-2.144 3.2-.515 1.218-.773 2.53-.773 3.936 0 1.407.258 2.73.773 3.973.516 1.24 1.23 2.32 2.145 3.233.914.914 1.98 1.63 3.2 2.145 1.218.515 2.53.773 3.937.773h20.18c4.17 0 8.097.786 11.777 2.357 3.678 1.57 6.89 3.726 9.632 6.468 2.742 2.743 4.898 5.954 6.468 9.633 1.57 3.68 2.356 7.606 2.356 11.778 0 4.172-.785 8.086-2.356 11.742-1.57 3.656-3.726 6.855-6.468 9.597-2.743 2.743-5.954 4.91-9.633 6.504-3.68 1.593-7.607 2.39-11.78 2.39h-44.788v-20.18h44.79c1.406 0 2.718-.257 3.937-.773 1.218-.516 2.284-1.23 3.198-2.145.914-.914 1.63-1.98 2.145-3.2.515-1.218.773-2.53.773-3.936 0-1.407-.258-2.72-.773-3.938-.516-1.22-1.23-2.285-2.145-3.2-.914-.913-1.98-1.628-3.2-2.144-1.218-.515-2.53-.773-3.937-.773h-20.178c-4.172 0-8.086-.796-11.742-2.39-3.657-1.593-6.856-3.76-9.598-6.504-2.742-2.742-4.91-5.953-6.504-9.632-1.594-3.68-2.39-7.606-2.39-11.778z" fill="#FFF"/></g></svg>